<svg width="18" height="20" viewBox="0 0 18 20" fill="none" xmlns="http://www.w3.org/2000/svg">
<path d="M8.55766 19.1153C7.50253 19.1153 6.46247 18.94 5.43747 18.5894C4.41247 18.2387 3.49869 17.7596 2.69613 17.1519C1.89357 16.5442 1.24358 15.8298 0.746147 15.0086C0.248716 14.1874 0 13.3064 0 12.3653V9.96154L3.36534 12.4903L1.89227 13.9634C2.3756 14.948 3.15829 15.7631 4.24035 16.4086C5.3224 17.0541 6.51151 17.441 7.80768 17.5692V8.59612H4.80768V7.09616H7.80768V5.38266C7.23076 5.20446 6.75319 4.87722 6.37499 4.40094C5.99678 3.92466 5.80768 3.37434 5.80768 2.74998C5.80768 1.98717 6.0753 1.33813 6.61056 0.802879C7.14581 0.267626 7.79484 0 8.55766 0C9.32048 0 9.96951 0.267626 10.5048 0.802879C11.04 1.33813 11.3076 1.98717 11.3076 2.74998C11.3076 3.37434 11.1185 3.92466 10.7403 4.40094C10.3621 4.87722 9.88456 5.20446 9.30764 5.38266V7.09616H12.3076V8.59612H9.30764V17.5692C10.6038 17.441 11.7945 17.0557 12.8798 16.4134C13.965 15.7711 14.7461 14.9577 15.2231 13.973L13.75 12.4903L17.1153 9.96154V12.3653C17.1153 13.3064 16.8666 14.1874 16.3692 15.0086C15.8717 15.8298 15.2217 16.5442 14.4192 17.1519C13.6166 17.7596 12.7028 18.2387 11.6779 18.5894C10.6529 18.94 9.61279 19.1153 8.55766 19.1153ZM8.55766 4C8.9051 4 9.2003 3.87852 9.44325 3.63557C9.6862 3.39262 9.80768 3.09742 9.80768 2.74998C9.80768 2.40254 9.6862 2.10734 9.44325 1.86439C9.2003 1.62144 8.9051 1.49996 8.55766 1.49996C8.21022 1.49996 7.91502 1.62144 7.67207 1.86439C7.42912 2.10734 7.30764 2.40254 7.30764 2.74998C7.30764 3.09742 7.42912 3.39262 7.67207 3.63557C7.91502 3.87852 8.21022 4 8.55766 4Z" fill="#F2CA50"/>
</svg>
