<svg width="20" height="22" viewBox="0 0 20 22" fill="none" xmlns="http://www.w3.org/2000/svg">
<path d="M1.23079 11.8942L8.49996 1.44234V11.8942H1.23079ZM4.09418 10.3942H7V6.22107L4.09418 10.3942ZM10.5962 11.8942C10.7833 11.4147 10.9808 10.6189 11.1885 9.50669C11.3962 8.39452 11.5 7.27369 11.5 6.1442C11.5 4.96344 11.3987 3.79581 11.1962 2.64133C10.9936 1.48686 10.7968 0.606411 10.6058 0C11.5904 0.376929 12.5468 0.960905 13.475 1.75193C14.4032 2.54295 15.2314 3.46827 15.9596 4.52788C16.6878 5.58749 17.282 6.74678 17.7423 8.00574C18.2025 9.26471 18.4519 10.5609 18.4903 11.8942H10.5962ZM12.5519 10.3942H16.8288C16.5647 8.93139 16.0638 7.57849 15.326 6.33553C14.5881 5.09257 13.7391 4.0416 12.7788 3.18261C12.8442 3.65442 12.8974 4.14353 12.9384 4.64995C12.9795 5.15637 13 5.65445 13 6.1442C13 6.91472 12.9577 7.65895 12.873 8.3769C12.7884 9.09485 12.6814 9.76729 12.5519 10.3942ZM6.74998 17.7019C6.18845 17.7019 5.64934 17.5827 5.13268 17.3442C4.61601 17.1058 4.15511 16.7699 3.74998 16.3365C3.55511 16.5417 3.34101 16.7381 3.10768 16.9259C2.87435 17.1138 2.62628 17.2615 2.36346 17.3692C1.80577 16.9487 1.33078 16.44 0.938469 15.8432C0.546162 15.2465 0.258982 14.5968 0.0769287 13.8942H19.423C19.241 14.5968 18.9538 15.2465 18.5615 15.8432C18.1692 16.44 17.6942 16.9487 17.1365 17.3692C16.8737 17.2615 16.6256 17.1138 16.3923 16.9259C16.159 16.7381 15.9449 16.5417 15.75 16.3365C15.3346 16.7699 14.8711 17.1058 14.3596 17.3442C13.8481 17.5827 13.3115 17.7019 12.75 17.7019C12.1884 17.7019 11.6477 17.5827 11.1279 17.3442C10.608 17.1058 10.1487 16.7667 9.74998 16.3269C9.35126 16.7667 8.89196 17.1058 8.37209 17.3442C7.85222 17.5827 7.31152 17.7019 6.74998 17.7019ZM0 21.3942V19.8942H0.749982C1.28332 19.8942 1.80255 19.8109 2.30767 19.6442C2.8128 19.4776 3.29357 19.2372 3.74998 18.9231C4.2128 19.2372 4.69518 19.475 5.1971 19.6365C5.69902 19.7981 6.21665 19.8788 6.74998 19.8788C7.28332 19.8788 7.79838 19.7981 8.29517 19.6365C8.79197 19.475 9.2769 19.2372 9.74998 18.9231C10.2128 19.2372 10.6952 19.475 11.1971 19.6365C11.699 19.7981 12.2166 19.8788 12.75 19.8788C13.2833 19.8788 13.8 19.7981 14.3 19.6365C14.8 19.475 15.2833 19.2372 15.75 18.9231C16.2231 19.2372 16.708 19.4776 17.2048 19.6442C17.7016 19.8109 18.2166 19.8942 18.75 19.8942H19.5V21.3942H18.75C18.2525 21.3942 17.7538 21.3301 17.2538 21.2019C16.7538 21.0737 16.2525 20.8782 15.75 20.6153C15.2474 20.8782 14.7461 21.0737 14.2461 21.2019C13.7461 21.3301 13.2474 21.3942 12.75 21.3942C12.2525 21.3942 11.7538 21.3301 11.2538 21.2019C10.7538 21.0737 10.2525 20.8782 9.74998 20.6153C9.24742 20.8782 8.74613 21.0737 8.24613 21.2019C7.74613 21.3301 7.24742 21.3942 6.74998 21.3942C6.25255 21.3942 5.75383 21.3301 5.25383 21.2019C4.75383 21.0737 4.25255 20.8782 3.74998 20.6153C3.24742 20.8782 2.74613 21.0737 2.24613 21.2019C1.74613 21.3301 1.24742 21.3942 0.749982 21.3942H0Z" fill="#F2CA50"/>
</svg>
