<svg width="35" height="35" viewBox="0 0 35 35" fill="none" xmlns="http://www.w3.org/2000/svg">
<path d="M0 34.9999V8H8V0H26.9999V16H34.9999V34.9999H20V26.9999H14.9999V34.9999H0V34.9999M2.99993 32H8V26.9999H2.99993V32V32M2.99993 24H8V18.9999H2.99993V24V24M2.99993 16H8V10.9999H2.99993V16V16M10.9999 24H16V18.9999H10.9999V24V24M10.9999 16H16V10.9999H10.9999V16V16M10.9999 8H16V2.99993H10.9999V8V8M18.9999 24H24V18.9999H18.9999V24V24M18.9999 16H24V10.9999H18.9999V16V16M18.9999 8H24V2.99993H18.9999V8V8M26.9999 32H32V26.9999H26.9999V32V32M26.9999 24H32V18.9999H26.9999V24V24" fill="#F2CA50"/>
</svg>
