<svg width="17" height="15" viewBox="0 0 17 15" fill="none" xmlns="http://www.w3.org/2000/svg">
<path d="M2.11532 12.9999V14.2499C2.11532 14.4624 2.04345 14.6406 1.8997 14.7843C1.75595 14.9281 1.57783 14.9999 1.36534 14.9999H0.749982C0.537487 14.9999 0.359366 14.9281 0.21562 14.7843C0.0718732 14.6406 0 14.4624 0 14.2499V6.57689L2.0423 0.749982C2.11666 0.5205 2.2532 0.338132 2.45191 0.202879C2.65062 0.0676264 2.87177 0 3.11536 0H13.923C14.157 0 14.3695 0.068748 14.5604 0.206244C14.7513 0.343741 14.8837 0.524987 14.9576 0.749982L16.9999 6.57689V14.2499C16.9999 14.4624 16.9281 14.6406 16.7843 14.7843C16.6406 14.9281 16.4624 14.9999 16.2499 14.9999H15.6346C15.4221 14.9999 15.244 14.9281 15.1002 14.7843C14.9565 14.6406 14.8846 14.4624 14.8846 14.2499V12.9999H2.11532V12.9999M2.10764 5.07693H14.8923L13.6307 1.49996H3.3692L2.10764 5.07693V5.07693M1.49996 6.57689V6.57689V11.5V11.5V6.57689V6.57689M3.96376 10.3461C4.32763 10.3461 4.63617 10.2188 4.88937 9.96404C5.14258 9.70933 5.26918 9.40004 5.26918 9.03617C5.26918 8.67229 5.14182 8.36376 4.88711 8.11055C4.6324 7.85735 4.32311 7.73075 3.95924 7.73075C3.59536 7.73075 3.28683 7.8581 3.03362 8.11282C2.78042 8.36753 2.65382 8.67682 2.65382 9.04069C2.65382 9.40456 2.78118 9.7131 3.03589 9.9663C3.2906 10.2195 3.59989 10.3461 3.96376 10.3461V10.3461M13.0407 10.3461C13.4046 10.3461 13.7131 10.2188 13.9663 9.96404C14.2195 9.70933 14.3461 9.40004 14.3461 9.03617C14.3461 8.67229 14.2188 8.36376 13.964 8.11055C13.7093 7.85735 13.4 7.73075 13.0362 7.73075C12.6723 7.73075 12.3638 7.8581 12.1106 8.11282C11.8574 8.36753 11.7307 8.67682 11.7307 9.04069C11.7307 9.40456 11.8581 9.7131 12.1128 9.9663C12.3675 10.2195 12.6768 10.3461 13.0407 10.3461V10.3461M1.49996 11.5H15.5V6.57689H1.49996V11.5V11.5" fill="black"/>
</svg>
