<svg width="32" height="29" viewBox="0 0 32 29" fill="none" xmlns="http://www.w3.org/2000/svg">
<path d="M15.4397 26.2211C15.5877 26.2211 15.7382 26.1865 15.8911 26.1172C16.044 26.048 16.1647 25.9692 16.2531 25.8807L28.2502 13.8836C28.5887 13.5451 28.8435 13.1836 29.0147 12.799C29.1858 12.4144 29.2714 12.0105 29.2714 11.5874C29.2714 11.149 29.1858 10.7269 29.0147 10.3211C28.8435 9.91532 28.5887 9.55089 28.2502 9.22781L22.2503 3.22784C21.9272 2.88937 21.5772 2.64178 21.2003 2.48504C20.8233 2.32831 20.4156 2.24995 19.9772 2.24995C19.5541 2.24995 19.1478 2.32831 18.7584 2.48504C18.369 2.64178 18.0099 2.88937 17.681 3.22784L16.8214 4.08749L19.5964 6.88556C19.9329 7.20671 20.1815 7.57306 20.342 7.98459C20.5026 8.39613 20.5829 8.82305 20.5829 9.26535C20.5829 10.1807 20.2771 10.9442 19.6656 11.5557C19.0541 12.1672 18.2906 12.473 17.3752 12.473C16.9329 12.473 16.5046 12.3999 16.0902 12.2538C15.6757 12.1076 15.3079 11.874 14.9868 11.5528L12.1454 8.73455L5.62622 15.2538C5.51275 15.3672 5.42766 15.4942 5.37092 15.6346C5.31419 15.7749 5.28583 15.9192 5.28583 16.0673C5.28583 16.3442 5.38006 16.5807 5.56852 16.7769C5.75699 16.973 5.98968 17.0711 6.26661 17.0711C6.41469 17.0711 6.56518 17.0365 6.71807 16.9673C6.87095 16.898 6.99163 16.8192 7.08009 16.7307L12.007 11.8038L13.5877 13.3846L8.6839 18.3115C8.57044 18.4249 8.48534 18.5519 8.42861 18.6922C8.37187 18.8326 8.34351 18.9769 8.34351 19.1249C8.34351 19.3923 8.44014 19.6226 8.63342 19.8158C8.82669 20.0091 9.05698 20.1057 9.3243 20.1057C9.47238 20.1057 9.62286 20.0711 9.77575 20.0019C9.92864 19.9327 10.0493 19.8538 10.1378 19.7653L15.2378 14.6884L16.8185 16.2691L11.7416 21.3691C11.6377 21.4576 11.555 21.5783 11.4935 21.7312C11.432 21.8841 11.4012 22.0345 11.4012 22.1826C11.4012 22.4499 11.4978 22.6802 11.6911 22.8735C11.8844 23.0668 12.1147 23.1634 12.382 23.1634C12.5301 23.1634 12.6743 23.135 12.8147 23.0783C12.9551 23.0216 13.082 22.9365 13.1955 22.823L18.2955 17.7461L19.8762 19.3268L14.7762 24.4268C14.6627 24.5403 14.5776 24.672 14.5209 24.822C14.4642 24.972 14.4358 25.1163 14.4358 25.2547C14.4358 25.5317 14.5387 25.762 14.7445 25.9456C14.9502 26.1293 15.182 26.2211 15.4397 26.2211V26.2211M15.4166 28.471C14.5685 28.471 13.8291 28.1768 13.1983 27.5884C12.5676 26.9999 12.2378 26.2672 12.2089 25.3903C11.3589 25.3326 10.6488 25.0307 10.0786 24.4845C9.50845 23.9384 9.19932 23.2211 9.15125 22.3326C8.26278 22.2749 7.54451 21.9643 6.99644 21.4009C6.44836 20.8374 6.15509 20.1288 6.11664 19.2749C5.22434 19.2172 4.4878 18.8937 3.90703 18.3043C3.32626 17.7148 3.03588 16.9692 3.03588 16.0673C3.03588 15.625 3.12001 15.1918 3.28828 14.7678C3.45655 14.3437 3.70126 13.9711 4.02241 13.65L12.1454 5.55001L16.5387 9.94324C16.6271 10.0471 16.743 10.1298 16.8863 10.1913C17.0296 10.2529 17.1848 10.2836 17.3522 10.2836C17.6252 10.2836 17.8608 10.1933 18.0589 10.0125C18.257 9.83171 18.356 9.59516 18.356 9.30285C18.356 9.13554 18.3253 8.98025 18.2637 8.83697C18.2022 8.6937 18.1195 8.57783 18.0156 8.48937L12.7541 3.22784C12.431 2.88937 12.0786 2.64178 11.6969 2.48504C11.3151 2.32831 10.905 2.24995 10.4666 2.24995C10.0435 2.24995 9.64206 2.32831 9.26225 2.48504C8.88244 2.64178 8.52331 2.88937 8.18484 3.22784L3.25795 8.17781C2.98487 8.45089 2.76131 8.77349 2.58727 9.14561C2.41323 9.51773 2.31082 9.89707 2.28005 10.2836C2.24929 10.6028 2.26371 10.9187 2.32333 11.2312C2.38294 11.5437 2.48775 11.8375 2.63775 12.1125L0.982019 13.7682C0.643564 13.2797 0.38876 12.7326 0.217608 12.1269C0.0464566 11.5211 -0.0237354 10.9067 0.00703245 10.2836C0.0378003 9.59323 0.193568 8.9264 0.474336 8.28313C0.755104 7.63986 1.14837 7.06535 1.65414 6.55958L6.56661 1.64711C7.12815 1.10096 7.7392 0.689899 8.39977 0.41394C9.06034 0.13798 9.75409 0 10.481 0C11.2079 0 11.8993 0.13798 12.555 0.41394C13.2108 0.689899 13.8118 1.10096 14.3579 1.64711L15.2176 2.50676L16.0772 1.64711C16.6387 1.10096 17.2474 0.689899 17.9032 0.41394C18.5589 0.13798 19.2503 0 19.9772 0C20.7041 0 21.3978 0.13798 22.0584 0.41394C22.719 0.689899 23.3223 1.10096 23.8685 1.64711L29.831 7.60958C30.3771 8.15573 30.7954 8.77736 31.0858 9.47447C31.3762 10.1716 31.5213 10.8836 31.5213 11.6105C31.5213 12.3374 31.3762 13.0288 31.0858 13.6845C30.7954 14.3403 30.3771 14.9413 29.831 15.4874L17.8339 27.4614C17.5031 27.7922 17.1305 28.0432 16.7161 28.2143C16.3017 28.3855 15.8685 28.471 15.4166 28.471V28.471M11.156 8.50958V8.50958V8.50958V8.50958V8.50958V8.50958V8.50958V8.50958V8.50958V8.50958V8.50958V8.50958V8.50958V8.50958V8.50958V8.50958V8.50958V8.50958V8.50958V8.50958V8.50958" fill="#F2CA50"/>
</svg>
