<svg width="38" height="35" viewBox="0 0 38 35" fill="none" xmlns="http://www.w3.org/2000/svg">
<path d="M3.61536 34.9998C2.60511 34.9998 1.74998 34.6498 1.04999 33.9498C0.349997 33.2498 0 32.3947 0 31.3844V10.6153C0 9.60503 0.349997 8.74991 1.04999 8.04992C1.74998 7.34992 2.60511 6.99993 3.61536 6.99993H12V3.61536C12 2.60511 12.35 1.74998 13.05 1.04999C13.75 0.349997 14.6051 0 15.6154 0H22.3845C23.3947 0 24.2499 0.349997 24.9499 1.04999C25.6499 1.74998 25.9999 2.60511 25.9999 3.61536V6.99993H34.3845C35.3947 6.99993 36.2499 7.34992 36.9499 8.04992C37.6499 8.74991 37.9999 9.60503 37.9999 10.6153V31.3844C37.9999 32.3947 37.6499 33.2498 36.9499 33.9498C36.2499 34.6498 35.3947 34.9998 34.3845 34.9998H3.61536ZM14.9999 6.99993H22.9999V3.61536C22.9999 3.4615 22.9358 3.32046 22.8076 3.19225C22.6794 3.06403 22.5384 2.99993 22.3845 2.99993H15.6154C15.4615 2.99993 15.3205 3.06403 15.1922 3.19225C15.064 3.32046 14.9999 3.4615 14.9999 3.61536V6.99993ZM34.9999 23.4998H23.9999V26.9998H14V23.4998H2.99993V31.3844C2.99993 31.5383 3.06403 31.6793 3.19225 31.8075C3.32046 31.9357 3.4615 31.9999 3.61536 31.9999H34.3845C34.5384 31.9999 34.6794 31.9357 34.8076 31.8075C34.9358 31.6793 34.9999 31.5383 34.9999 31.3844V23.4998ZM16.9999 23.9999H20.9999V19.9999H16.9999V23.9999ZM2.99993 20.4999H14V16.9999H23.9999V20.4999H34.9999V10.6153C34.9999 10.4614 34.9358 10.3204 34.8076 10.1922C34.6794 10.064 34.5384 9.99985 34.3845 9.99985H3.61536C3.4615 9.99985 3.32046 10.064 3.19225 10.1922C3.06403 10.3204 2.99993 10.4614 2.99993 10.6153V20.4999Z" fill="#F2CA50"/>
</svg>
