<svg width="32" height="23" viewBox="0 0 32 23" fill="none" xmlns="http://www.w3.org/2000/svg">
<path d="M6.74655 22.5864C5.57574 22.5864 4.58169 22.177 3.76438 21.3581C2.94708 20.5392 2.53843 19.5448 2.53843 18.3749H0V2.71152C0 1.95383 0.262498 1.31249 0.787493 0.787493C1.31249 0.262498 1.95383 0 2.71152 0H23.1346V5.71152H27.1153L31.9615 12.2019V18.3749H29.2499C29.2499 19.5448 28.8402 20.5392 28.0206 21.3581C27.201 22.177 26.2058 22.5864 25.035 22.5864C23.8642 22.5864 22.8702 22.177 22.0529 21.3581C21.2356 20.5392 20.8269 19.5448 20.8269 18.3749H10.9615C10.9615 19.548 10.5517 20.5432 9.73211 21.3605C8.91255 22.1778 7.91736 22.5864 6.74655 22.5864V22.5864M6.74995 20.3365C7.29995 20.3365 7.76439 20.1471 8.14324 19.7682C8.52209 19.3894 8.71152 18.9249 8.71152 18.3749C8.71152 17.8249 8.52209 17.3605 8.14324 16.9816C7.76439 16.6028 7.29995 16.4133 6.74995 16.4133C6.19994 16.4133 5.73551 16.6028 5.35665 16.9816C4.9778 17.3605 4.78837 17.8249 4.78837 18.3749C4.78837 18.9249 4.9778 19.3894 5.35665 19.7682C5.73551 20.1471 6.19994 20.3365 6.74995 20.3365V20.3365M2.24995 16.125H3.33455C3.65378 15.5692 4.11483 15.1033 4.71772 14.7274C5.32061 14.3514 5.99802 14.1634 6.74995 14.1634C7.48264 14.1634 8.15524 14.349 8.76775 14.7201C9.38025 15.0913 9.84612 15.5596 10.1653 16.125H20.8846V2.24995H2.71152C2.59612 2.24995 2.49035 2.29803 2.39419 2.39419C2.29803 2.49035 2.24995 2.59612 2.24995 2.71152V16.125V16.125M25.0384 20.3365C25.5884 20.3365 26.0529 20.1471 26.4317 19.7682C26.8106 19.3894 27 18.9249 27 18.3749C27 17.8249 26.8106 17.3605 26.4317 16.9816C26.0529 16.6028 25.5884 16.4133 25.0384 16.4133C24.4884 16.4133 24.024 16.6028 23.6451 16.9816C23.2663 17.3605 23.0769 17.8249 23.0769 18.3749C23.0769 18.9249 23.2663 19.3894 23.6451 19.7682C24.024 20.1471 24.4884 20.3365 25.0384 20.3365V20.3365M23.1346 13.125H29.8557L25.9615 7.96146H23.1346V13.125V13.125M11.5673 9.18746V9.18746V9.18746V9.18746V9.18746V9.18746V9.18746V9.18746V9.18746V9.18746V9.18746V9.18746V9.18746" fill="#F2CA50"/>
</svg>
